Format : AVI
Format/Info : Audio Video Interleave
File size : 1.53 GiB
Duration : 1h 48mn
Overall bit rate : 2 017 Kbps
Writing library : VirtualDub build 32842/release

Video
ID : 0
Format : MPEG-4 Visual
Format profile : Advanced Simple@L5
Format settings, BVOP : 1
Format settings, QPel : No
Format settings, GMC : No warppoints
Format settings, Matrix : Default (H.263)
Muxing mode : Packed bitstream
Codec ID : XVID
Codec ID/Hint : XviD
Duration : 1h 48mn
Bit rate : 1 877 Kbps
Width : 624 pixels
Height : 338 pixels
Display aspect ratio : 16:9
Frame rate : 29.970 fps
Color space : YUV
Chroma subsampling : 4:2:0
Bit depth : 8 bits
Scan type : Progressive
Compression mode : Lossy
Bits/(Pixel*Frame) : 0.297
Stream size : 1.42 GiB (93%)
Writing library : XviD 64

Audio
ID : 1
Format : MPEG Audio
Format version : Version 1
Format profile : Layer 3
Codec ID : 55
Codec ID/Hint : MP3
Duration : 1h 48mn
Bit rate mode : Constant
Bit rate : 128 Kbps
Channel(s) : 2 channels
Sampling rate : 44.1 KHz
Compression mode : Lossy
Stream size : 99.1 MiB (6%)
Alignment : Split accross interleaves
Interleave, duration : 33 ms (1.00 video frame)
 
http://www.imdb.com/title/tt1598822/


Ratings: 4.9/10 from 3,755 users Metascore: 22/100 
Reviews: 47 user | 97 critic | 30 from Metacritic.com

The lives of several couples and singles in New York intertwine over the course of New Year's Eve.
Director:
Garry Marshall
Writer:
Katherine Fugate
Stars:
Sarah Jessica Parker, Jessica Biel and Ashton Kutcher


 
http://img13.imageshack.us/img13/7561/vlcsnap2011122018h11m30.png
 
http://img819.imageshack.us/img819/8687/vlcsnap2011122018h08m34.png
 
http://img828.imageshack.us/img828/3382/vlcsnap2011122018h11m53.png
 
http://img577.imageshack.us/img577/6493/vlcsnap2011122018h09m06.png


Source Used




Video........Unknown.............Thanks

Audio.........Unknown..............Thanks 

+ A very clever person who cleaned and filtered the audio.......Thank you mate 




Filtered the video but thats blah blah ...........pretty good release this one 
